<svg id="eQRjYL2l3pu1" xmlns="http://www.w3.org/2000/svg" xmlns:xlink="http://www.w3.org/1999/xlink" viewBox="0 0 92 92" shape-rendering="geometricPrecision" text-rendering="geometricPrecision"><style><![CDATA[#eQRjYL2l3pu2_to {animation: eQRjYL2l3pu2_to__to 10000ms linear infinite normal forwards}@keyframes eQRjYL2l3pu2_to__to { 0% {transform: translate(71.036636px,71.039907px);animation-timing-function: cubic-bezier(0.265,-0.01,0.735,0.99)} 50% {transform: translate(74.036636px,59.039907px);animation-timing-function: cubic-bezier(0.265,-0.01,0.735,0.99)} 100% {transform: translate(71.036636px,71.039907px)}} #eQRjYL2l3pu2_tr {animation: eQRjYL2l3pu2_tr__tr 10000ms linear infinite normal forwards}@keyframes eQRjYL2l3pu2_tr__tr { 0% {transform: rotate(0deg);animation-timing-function: cubic-bezier(0.265,-0.01,0.735,0.99)} 50% {transform: rotate(-60deg);animation-timing-function: cubic-bezier(0.265,-0.01,0.735,0.99)} 100% {transform: rotate(0deg)}}]]></style><g id="eQRjYL2l3pu2_to" transform="translate(71.036636,71.039907)"><g id="eQRjYL2l3pu2_tr" transform="rotate(0)"><path id="eQRjYL2l3pu2" d="M51.2901,60.4406L58.7386,85.74C59.8945,89.6663,64.009,91.9313,67.9284,90.7989C69.1213,90.4542,70.2062,89.8139,71.083,88.9372L88.9339,71.0862C91.8147,68.2054,91.8007,63.5206,88.9025,60.6225C88.0205,59.7404,86.9317,59.0936,85.7367,58.7418L60.4373,51.2934C56.511,50.1374,52.4101,52.3777,51.2777,56.2972C50.8871,57.6489,50.8915,59.0865,51.2901,60.4406Z" transform="translate(-71.036636,-71.039907)" clip-rule="evenodd" fill="rgb(252,245,166)" fill-rule="evenodd" stroke="none" stroke-width="1"/></g></g><g id="eQRjYL2l3pu3" transform="matrix(1 0 0 1 16 16)"><g id="eQRjYL2l3pu4"><rect id="eQRjYL2l3pu5" width="60" height="60" rx="0" ry="0" fill="none" fill-rule="evenodd" stroke="none" stroke-width="1"/><path id="eQRjYL2l3pu6" d="M25.33935,50.56592C34.673221,52.331002,44.607034,48.66824,50.434725,40.397135C58.388297,29.111044,55.682039,13.516587,44.398358,5.565023C33.112504,-2.386541,17.5162,0.315425,9.564803,11.601517C3.711026,19.909575,3.630599,30.556585,8.501863,38.766825" fill="none" stroke="rgb(37,40,45)" stroke-width="2" stroke-linecap="round" stroke-linejoin="round"/><path id="eQRjYL2l3pu7" d="M24,22L24,18.4C24,15.4174,26.688,13,30,13C33.314,13,36,15.4174,36,18.4L36,22" fill="none" fill-rule="evenodd" stroke="rgb(37,40,45)" stroke-width="2" stroke-linecap="round" stroke-linejoin="round"/><path id="eQRjYL2l3pu8" d="M22,37L38,37C39.10457,37,40,36.10457,40,35L40,24C40,22.895431,39.10457,22,38,22L22,22C20.895431,22,20,22.895431,20,24L20,35C20,36.10457,20.895431,37,22,37Z" fill="none" fill-rule="evenodd" stroke="rgb(37,40,45)" stroke-width="2" stroke-linejoin="round"/><path id="eQRjYL2l3pu9" d="M32,28C32,29.104,31.104,30,30,30C28.896,30,28,29.104,28,28C28,26.896,28.896,26,30,26C31.104,26,32,26.896,32,28Z" fill="rgb(37,40,45)" stroke="none" stroke-width="1"/><line id="eQRjYL2l3pu10" x1="30" y1="33" x2="30" y2="30" fill="none" fill-rule="evenodd" stroke="rgb(37,40,45)" stroke-width="2" stroke-linecap="round" stroke-linejoin="round"/><line id="eQRjYL2l3pu11" x1="24" y1="51" x2="32" y2="58.86471" fill="none" stroke="rgb(37,40,45)" stroke-width="2" stroke-linecap="round" stroke-linejoin="round"/><line id="eQRjYL2l3pu12" x1="32" y1="42.62372" x2="24" y2="51" fill="none" stroke="rgb(37,40,45)" stroke-width="2" stroke-linecap="round" stroke-linejoin="round"/></g></g></svg>