<svg id="eIMYqBliFPa1" xmlns="http://www.w3.org/2000/svg" xmlns:xlink="http://www.w3.org/1999/xlink" width="92px" height="92px" viewBox="0 0 92 92" shape-rendering="geometricPrecision" text-rendering="geometricPrecision"><style><![CDATA[#eIMYqBliFPa2_to {animation: eIMYqBliFPa2_to__to 9000ms linear infinite normal forwards}@keyframes eIMYqBliFPa2_to__to { 0% {transform: translate(71.039907px,21.113397px);animation-timing-function: cubic-bezier(0.29,-0.005,0.72,1.005)} 55.555556% {transform: translate(69.039907px,31.113397px);animation-timing-function: cubic-bezier(0.29,-0.005,0.72,1.005)} 100% {transform: translate(71.039907px,21.113397px)}} #eIMYqBliFPa2_tr {animation: eIMYqBliFPa2_tr__tr 9000ms linear infinite normal forwards}@keyframes eIMYqBliFPa2_tr__tr { 0% {transform: rotate(0deg);animation-timing-function: cubic-bezier(0.29,-0.005,0.72,1.005)} 55.555556% {transform: rotate(-60deg);animation-timing-function: cubic-bezier(0.29,-0.005,0.72,1.005)} 100% {transform: rotate(0deg)}}]]></style><g id="eIMYqBliFPa2_to" transform="translate(71.039907,21.113397)"><g id="eIMYqBliFPa2_tr" transform="rotate(0)"><path d="M60.4406,40.8599L85.74,33.4115c3.9263-1.156,6.1913-5.2704,5.0589-9.1899-.3447-1.1928-.985-2.2778-1.8617-3.1545L71.0862,3.21611c-2.8808-2.880806-7.5656-2.866741-10.4637.03142-.8821.88203-1.5289,1.97083-1.8807,3.16578L51.2934,31.7127c-1.156,3.9263,1.0843,8.0272,5.0038,9.1596c1.3517.3906,2.7893.3863,4.1434-.0124Z" transform="translate(-71.039907,-21.113397)" clip-rule="evenodd" fill="#c8f7d3" fill-rule="evenodd"/></g></g><g transform="translate(16 16)"><g><rect width="60" height="60" rx="0" ry="0" fill="none" fill-rule="evenodd"/><path d="M39.999997,4.410961c-5.982472-3.215002-13.353291-3.214589-19.33535.001085-1.793511.964108-3.380474,2.173307-4.72348,3.567259-.613881.637169-1.176791,1.312939-1.685157,2.021548-.23538.328096-.459067.663232-.670707,1.004836-.014215.022945-.028376.045918-.042482.068921M10.999997,20v12" fill="none" fill-rule="evenodd" stroke="#25282d" stroke-width="2" stroke-linecap="round" stroke-linejoin="round"/><path d="M48.969368,32c.040843-8.230061.040843-12.633104,0-13.209127C48.817241,16.645379,48.108725,14.83805,47,13" fill="none" fill-rule="evenodd" stroke="#25282d" stroke-width="2" stroke-linecap="round" stroke-linejoin="round"/><path d="M18.000001,32v-11.998917c-.000765-3.56252,1.878416-6.880012,4.995717-8.933193.321487-.211744.656141-.410041,1.00326-.593773M42.001023,32c0-1.925136,0-3.596555,0-5m-.03911-8c-.025805-.292801-.064271-.47238-.115074-.760004-.570721-3.23114-2.694414-6.098365-5.844793-7.765879-3.712968-1.965296-8.287845-1.965502-12.001023-.000541" transform="matrix(-1 0 0 1 60.001 0)" fill="none" fill-rule="evenodd" stroke="#25282d" stroke-width="2" stroke-linecap="round" stroke-linejoin="round"/><path d="M26.449037,20.579059C26.449037,18.601412,28.053622,17,30.011597,17c1.977077,0,3.600764,1.620706,3.600764,3.617647v14.470588l10.847087,3.617647c2.359122.766942,2.896371,3.583883,2.337632,6.029412L44.512001,57.180591C44.424842,57.655288,44.011075,58,43.528443,58h-17.69392c-.335335,0-.648346-.168076-.833583-.447605L15.708254,43.529412v0c-1.08405-1.673765-1.115091-4.82353,1.272684-4.82353s4.69255,1.01053,9.468099,8.441177v-26.568Z" fill="none" fill-rule="evenodd" stroke="#25282d" stroke-width="2" stroke-linejoin="round"/></g></g></svg>