<svg id="eS6d3MWXAwj1" xmlns="http://www.w3.org/2000/svg" xmlns:xlink="http://www.w3.org/1999/xlink" viewBox="0 0 92 92" shape-rendering="geometricPrecision" text-rendering="geometricPrecision"><style><![CDATA[#eS6d3MWXAwj2_to {animation: eS6d3MWXAwj2_to__to 12000ms linear infinite normal forwards}@keyframes eS6d3MWXAwj2_to__to { 0% {transform: translate(21.114394px,71.040886px);animation-timing-function: cubic-bezier(0.29,0,0.735,1.005)} 45.833333% {transform: translate(26.114394px,63.040886px);animation-timing-function: cubic-bezier(0.29,0,0.735,1.005)} 91.666667% {transform: translate(21.114394px,71.040886px)} 100% {transform: translate(21.114394px,71.040886px)}} #eS6d3MWXAwj2_tr {animation: eS6d3MWXAwj2_tr__tr 12000ms linear infinite normal forwards}@keyframes eS6d3MWXAwj2_tr__tr { 0% {transform: rotate(0deg);animation-timing-function: cubic-bezier(0.29,0,0.735,1.005)} 45.833333% {transform: rotate(-60deg);animation-timing-function: cubic-bezier(0.29,0,0.735,1.005)} 91.666667% {transform: rotate(0deg)} 100% {transform: rotate(0deg)}}]]></style><g id="eS6d3MWXAwj2_to" transform="translate(21.114394,71.040886)"><g id="eS6d3MWXAwj2_tr" transform="rotate(0)"><path id="eS6d3MWXAwj2" d="M31.7137,51.2944L6.41431,58.7428C2.48798,59.8988,0.223046,64.0132,1.35545,67.9327C1.70008,69.1255,2.34036,70.2104,3.21711,71.0872L21.0681,88.9382C23.9489,91.819,28.6337,91.8049,31.5318,88.9067C32.4139,88.0247,33.0607,86.9359,33.4125,85.741L40.8609,60.4416C42.0168,56.5153,39.7766,52.4143,35.8571,51.2819C34.5054,50.8914,33.0678,50.8957,31.7137,51.2944Z" transform="translate(-21.114394,-71.040886)" clip-rule="evenodd" fill="rgb(224,233,248)" fill-rule="evenodd" stroke="none" stroke-width="1"/></g></g><g id="eS6d3MWXAwj3" transform="matrix(1 0 0 1 16 16)"><g id="eS6d3MWXAwj4"><rect id="eS6d3MWXAwj5" width="60" height="60" rx="0" ry="0" fill="none" fill-rule="evenodd" stroke="none" stroke-width="1"/><path id="eS6d3MWXAwj6" d="M17,26L17,4C17,2.895431,17.895431,2,19,2L43.648509,2C44.192543,2,44.713101,2.221625,45.090176,2.613783L56.441666,14.419333C56.799905,14.791902,57,15.288692,57,15.80555L57,54C57,55.10457,56.10457,56,55,56L52,56L52,56" fill="none" fill-rule="evenodd" stroke="rgb(37,40,45)" stroke-width="2" stroke-linecap="round" stroke-linejoin="round"/><path id="eS6d3MWXAwj7" d="M10,26.06884L10,25C10,23.895431,9.10457,23,8,23L5,23C3.895431,23,3,23.895431,3,25L3,54.470588L3,54.470588C3,56.418824,4.608,58.000255,6.6,58.000255C8.5872,58.000255,10,56.418824,10,54.470588L10,34C10,32.895431,10.895431,32,12,32L44.000146,32C45.104715,32,46.000146,32.895431,46.000146,34L46.000146,54.000255C46.000146,56.209394,44.209285,58.000255,42.000146,58.000255L6.6,58.000255L6.6,58.000255" fill="none" stroke="rgb(37,40,45)" stroke-width="2" stroke-linecap="round" stroke-linejoin="round"/><line id="eS6d3MWXAwj8" x1="25" y1="17" x2="34" y2="17" fill="none" fill-rule="evenodd" stroke="rgb(37,40,45)" stroke-width="2" stroke-linecap="round" stroke-linejoin="round"/><line id="eS6d3MWXAwj9" x1="25" y1="26" x2="40" y2="26" fill="none" fill-rule="evenodd" stroke="rgb(37,40,45)" stroke-width="2" stroke-linecap="round" stroke-linejoin="round"/><polyline id="eS6d3MWXAwj10" points="44,2.523933 44,15.001067 56.346453,15.001067" fill="none" fill-rule="evenodd" stroke="rgb(37,40,45)" stroke-width="2" stroke-linecap="round" stroke-linejoin="round"/></g></g></svg>