<svg id="e3PYrTRcQMl1" xmlns="http://www.w3.org/2000/svg" xmlns:xlink="http://www.w3.org/1999/xlink" viewBox="0 0 92 92" shape-rendering="geometricPrecision" text-rendering="geometricPrecision"><style><![CDATA[#e3PYrTRcQMl2_to {animation: e3PYrTRcQMl2_to__to 8000ms linear infinite normal forwards}@keyframes e3PYrTRcQMl2_to__to { 0% {transform: translate(21.048689px,21.050454px);animation-timing-function: cubic-bezier(0.285,0,0.7,1)} 50% {transform: translate(21.048689px,33.050454px);animation-timing-function: cubic-bezier(0.285,0,0.7,1)} 100% {transform: translate(21.048689px,21.050454px)}} #e3PYrTRcQMl2_tr {animation: e3PYrTRcQMl2_tr__tr 8000ms linear infinite normal forwards}@keyframes e3PYrTRcQMl2_tr__tr { 0% {transform: rotate(-6deg);animation-timing-function: cubic-bezier(0.285,0,0.7,1)} 50% {transform: rotate(-50deg);animation-timing-function: cubic-bezier(0.285,0,0.7,1)} 100% {transform: rotate(0deg)}}]]></style><g id="e3PYrTRcQMl2_to" transform="translate(21.048689,21.050454)"><g id="e3PYrTRcQMl2_tr" transform="rotate(-6)"><path id="e3PYrTRcQMl2" d="M40.5799,31.7094L33.1314,6.41001C31.9755,2.48368,27.861,0.21875,23.9416,1.35115C22.7487,1.69579,21.6638,2.33607,20.787,3.21282L2.93608,21.0638C0.055267,23.9446,0.069332,28.6294,2.96749,31.5275C3.84952,32.4096,4.93832,33.0564,6.13327,33.4082L31.4327,40.8566C35.359,42.0126,39.4599,39.7723,40.5923,35.8528C40.9828,34.5011,40.9785,33.0635,40.5799,31.7094Z" transform="translate(-20.833342,-21.110113)" clip-rule="evenodd" fill="rgb(252,245,166)" fill-rule="evenodd" stroke="none" stroke-width="1"/></g></g><g id="e3PYrTRcQMl3" transform="matrix(1 0 0 1 16 16)"><rect id="e3PYrTRcQMl4" width="60" height="60" rx="0" ry="0" fill="rgb(255,255,255)" fill-opacity="0" stroke="none" stroke-width="1"/><path id="e3PYrTRcQMl5" d="M3,34L3,54" fill="none" stroke="rgb(37,40,45)" stroke-width="2" stroke-linecap="round" stroke-linejoin="round"/><path id="e3PYrTRcQMl6" d="M4,51L43,51C43,47.134,39.8253,44,35.9091,44L27.0455,44C27.0455,40.134,23.8707,37,19.9545,37L4,37" fill="none" stroke="rgb(37,40,45)" stroke-width="2" stroke-linecap="round" stroke-linejoin="round"/><path id="e3PYrTRcQMl7" d="M19,26C19,27.1046,19.8954,28,21,28L56,28C57.1046,28,58,27.1046,58,26L58,12C58,10.8954,57.1046,10,56,10L21,10C19.8954,10,19,10.8954,19,12L19,26Z" clip-rule="evenodd" fill="none" fill-rule="evenodd" stroke="rgb(37,40,45)" stroke-width="2" stroke-linejoin="round"/><path id="e3PYrTRcQMl8" d="M28,15.5L28,19M28,19L25.5,22.5M28,19L30.5,22.5M28,19L31.5,18M28,19L24.5,18" fill="none" stroke="rgb(37,40,45)" stroke-width="2" stroke-linecap="round" stroke-linejoin="round"/><path id="e3PYrTRcQMl9" d="M38.5,15.5L38.5,19M38.5,19L36,22.5M38.5,19L41,22.5M38.5,19L42,18M38.5,19L35,18" fill="none" stroke="rgb(37,40,45)" stroke-width="2" stroke-linecap="round" stroke-linejoin="round"/><path id="e3PYrTRcQMl10" d="M49.5,15.5L49.5,19M49.5,19L47,22.5M49.5,19L52,22.5M49.5,19L53,18M49.5,19L46,18" fill="none" stroke="rgb(37,40,45)" stroke-width="2" stroke-linecap="round" stroke-linejoin="round"/><path id="e3PYrTRcQMl11" d="M17,44L27,44" fill="none" stroke="rgb(37,40,45)" stroke-width="2" stroke-linecap="round" stroke-linejoin="round"/></g></svg>