<svg id="eAf5lIonr4u1" xmlns="http://www.w3.org/2000/svg" xmlns:xlink="http://www.w3.org/1999/xlink" viewBox="0 0 92 92" shape-rendering="geometricPrecision" text-rendering="geometricPrecision"><style><![CDATA[#eAf5lIonr4u2_to {animation: eAf5lIonr4u2_to__to 9000ms linear infinite normal forwards}@keyframes eAf5lIonr4u2_to__to { 0% {transform: translate(71.039907px,21.113397px);animation-timing-function: cubic-bezier(0.29,-0.005,0.72,1.005)} 55.555556% {transform: translate(69.039907px,31.113397px);animation-timing-function: cubic-bezier(0.29,-0.005,0.72,1.005)} 100% {transform: translate(71.039907px,21.113397px)}} #eAf5lIonr4u2_tr {animation: eAf5lIonr4u2_tr__tr 9000ms linear infinite normal forwards}@keyframes eAf5lIonr4u2_tr__tr { 0% {transform: rotate(0deg);animation-timing-function: cubic-bezier(0.29,-0.005,0.72,1.005)} 55.555556% {transform: rotate(-60deg);animation-timing-function: cubic-bezier(0.29,-0.005,0.72,1.005)} 100% {transform: rotate(0deg)}}]]></style><g id="eAf5lIonr4u2_to" transform="translate(71.039907,21.113397)"><g id="eAf5lIonr4u2_tr" transform="rotate(0)"><path id="eAf5lIonr4u2" d="M60.4406,40.8599L85.74,33.4115C89.6663,32.2555,91.9313,28.1411,90.7989,24.2216C90.4542,23.0288,89.8139,21.9438,88.9372,21.0671L71.0862,3.21611C68.2054,0.335304,63.5206,0.349369,60.6225,3.24753C59.7404,4.12956,59.0936,5.21836,58.7418,6.41331L51.2934,31.7127C50.1374,35.639,52.3777,39.7399,56.2972,40.8723C57.6489,41.2629,59.0865,41.2586,60.4406,40.8599Z" transform="translate(-71.039907,-21.113397)" clip-rule="evenodd" fill="rgb(202,237,247)" fill-rule="evenodd" stroke="none" stroke-width="1"/></g></g><g id="eAf5lIonr4u3" transform="matrix(1 0 0 1 16 16)"><g id="eAf5lIonr4u4"><rect id="eAf5lIonr4u5" width="60" height="60" rx="0" ry="0" fill="none" fill-rule="evenodd" stroke="none" stroke-width="1"/><path id="eAf5lIonr4u6" d="M10,52L7.619153,34.540453C7.320669,32.351571,8.853139,30.335163,11.042021,30.036679C11.221136,30.012255,11.401701,30,11.582473,30L50.417527,30C52.626666,30,54.417527,31.790861,54.417527,34C54.417527,34.180773,54.405272,34.361338,54.380847,34.540453L52,52L52,52" fill="none" fill-rule="evenodd" stroke="rgb(37,40,45)" stroke-width="2" stroke-linecap="round" stroke-linejoin="round"/><path id="eAf5lIonr4u7" d="M26,39L36,39M31,39L31,46M22.687524,42L24.687524,42M39.24125,42L37.24125,42M37.708273,46L35.928774,45M38.458126,37.302673L36.678627,38.302673M24.220501,46L26,45M23.470648,37.302673L25.250147,38.302673" fill="none" fill-rule="evenodd" stroke="rgb(37,40,45)" stroke-width="2" stroke-linecap="round" stroke-linejoin="round"/><path id="eAf5lIonr4u8" d="M7,52L54,52C54.552285,52,55,52.447715,55,53L55,55C55,56.656854,53.656854,58,52,58L9,58C7.343146,58,6,56.656854,6,55L6,53C6,52.447715,6.447715,52,7,52Z" fill="none" fill-rule="evenodd" stroke="rgb(37,40,45)" stroke-width="2" stroke-linecap="round" stroke-linejoin="round"/><path id="eAf5lIonr4u9" d="M14,30L14,20.606942C14,16.42354,15.870803,12.459338,19.100099,9.799919L26.550049,3.664665C29.13484,1.536014,32.86516,1.536014,35.449951,3.664665L42.899902,9.799919C46.129197,12.459338,48,16.42354,48,20.606942L48,30L48,30" fill="none" fill-rule="evenodd" stroke="rgb(37,40,45)" stroke-width="2" stroke-linecap="round" stroke-linejoin="round"/><path id="eAf5lIonr4u10" d="M19.976403,29.811152C19.030147,28,18.487742,27.572902,18,25.5L17.875165,24.969453C17.221897,22.193062,18.943028,19.412773,21.719419,18.759505C22.468678,18.583208,23.247869,18.576625,24,18.740235C29.271691,19.886983,32.728309,19.886983,38,18.740235C40.787033,18.133974,43.537842,19.901838,44.144104,22.688871C44.307715,23.441002,44.301131,24.220194,44.124835,24.969453L44,25.5C43.533049,27.484541,43.0029,28,42.204901,29.627591" fill="none" fill-rule="evenodd" stroke="rgb(37,40,45)" stroke-width="2" stroke-linecap="round" stroke-linejoin="round"/><path id="eAf5lIonr4u11" d="M20.012659,19.556134C20.190307,23.450428,23.224135,27.860742,26.250147,29.92308M35.83004,29.867954C38.784933,27.81888,41.775215,23.476709,41.982148,19.660178" fill="none" fill-rule="evenodd" stroke="rgb(37,40,45)" stroke-width="2" stroke-linecap="round" stroke-linejoin="round"/><circle id="eAf5lIonr4u12" r="6" transform="matrix(1 0 0 1 31 41)" fill="none" fill-rule="evenodd" stroke="rgb(37,40,45)" stroke-width="2" stroke-linecap="round" stroke-linejoin="round"/></g></g></svg>